Coordinates
nRows=246
nColumns=2
inDegrees=yes
endheader
time	ankle_angle_r	
3.22681	  9.384012	
3.26008	  9.376055	
3.29335	  9.370781	
3.32661	  9.368984	
3.35988	  9.369822	
3.39315	  9.372760	
3.42641	  9.374565	
3.45968	  9.370473	
3.49294	  9.361794	
3.52621	  9.355399	
3.55948	  9.357426	
3.59274	  9.368949	
3.62601	  9.385493	
3.65927	  9.401853	
3.69254	  9.415181	
3.72581	  9.423017	
3.75907	  9.423801	
3.79234	  9.419836	
3.8256	  9.417673	
3.85887	  9.425791	
3.89214	  9.444502	
3.9254	  9.458131	
3.95867	  9.453679	
3.99194	  9.438391	
4.0252	  9.425151	
4.05847	  9.420082	
4.09173	  9.423462	
4.125	  9.425711	
4.15827	  9.414022	
4.19153	  9.389318	
4.2248	  9.364541	
4.25806	  9.348682	
4.29133	  9.342380	
4.3246	  9.342417	
4.35786	  9.345175	
4.39113	  9.347804	
4.4244	  9.346771	
4.45766	  9.341794	
4.49093	  9.338497	
4.52419	  9.339758	
4.55746	  9.342720	
4.59073	  9.345228	
4.62399	  9.345874	
4.65726	  9.343433	
4.69052	  9.339946	
4.72379	  9.338284	
4.75706	  9.340329	
4.79032	  9.346909	
4.82359	  9.353225	
4.85685	  9.353006	
4.89012	  9.348975	
4.92339	  9.347080	
4.95665	  9.348107	
4.98992	  9.352488	
5.02319	  9.360202	
5.05645	  9.367065	
5.08972	  9.370086	
5.12298	  9.372446	
5.15625	  9.381545	
5.18952	  9.399010	
5.22278	  9.413407	
5.25605	  9.415269	
5.28931	  9.411399	
5.32258	  9.412129	
5.35585	  9.418243	
5.38911	  9.426864	
5.42238	  9.439991	
5.45565	  9.460454	
5.48891	  9.481762	
5.52218	  9.489884	
5.55544	  9.480161	
5.58871	  9.467964	
5.62198	  9.471974	
5.65524	  9.488219	
5.68851	  9.491939	
5.72177	  9.467505	
5.75504	  9.426440	
5.78831	  9.390694	
5.82157	  9.371951	
5.85484	  9.371993	
5.8881	  9.384750	
5.92137	  9.396110	
5.95464	  9.396889	
5.9879	  9.389836	
6.02117	  9.381864	
6.05444	  9.381398	
6.0877	  9.391737	
6.12097	  9.402433	
6.15423	  9.403785	
6.1875	  9.401917	
6.22077	  9.408601	
6.25403	  9.427519	
6.2873	  9.449997	
6.32056	  9.461453	
6.35383	  9.459928	
6.3871	  9.458769	
6.42036	  9.465409	
6.45363	  9.474002	
6.4869	  9.479200	
6.52016	  9.481419	
6.55343	  9.481012	
6.58669	  9.477716	
6.61996	  9.472723	
6.65323	  9.465972	
6.68649	  9.456121	
6.71976	  9.448086	
6.75302	  9.452300	
6.78629	  9.465940	
6.81956	  9.469289	
6.85282	  9.453943	
6.88609	  9.433214	
6.91935	  9.419875	
6.95262	  9.415696	
6.98589	  9.417480	
7.01915	  9.421741	
7.05242	  9.427778	
7.08569	  9.432887	
7.11895	  9.429319	
7.15222	  9.416013	
7.18548	  9.400652	
7.21875	  9.387555	
7.25202	  9.379393	
7.28528	  9.381023	
7.31855	  9.389232	
7.35181	  9.392150	
7.38508	  9.382857	
7.41835	  9.365872	
7.45161	  9.351516	
7.48488	  9.345978	
7.51815	  9.347596	
7.55141	  9.351043	
7.58468	  9.352450	
7.61794	  9.352704	
7.65121	  9.353596	
7.68448	  9.352118	
7.71774	  9.346114	
7.75101	  9.338972	
7.78427	  9.333860	
7.81754	  9.332665	
7.85081	  9.336045	
7.88407	  9.339339	
7.91734	  9.339273	
7.9506	  9.339127	
7.98387	  9.342026	
8.01714	  9.350702	
8.0504	  9.365514	
8.08367	  9.378600	
8.11694	  9.385700	
8.1502	  9.391452	
8.18347	  9.394287	
8.21673	  9.390318	
8.25	  9.388552	
8.28327	  9.402340	
8.31653	  9.429930	
8.3498	  9.452001	
8.38306	  9.452469	
8.41633	  9.435240	
8.4496	  9.415220	
8.48286	  9.403782	
8.51613	  9.404955	
8.5494	  9.415945	
8.58266	  9.430671	
8.61593	  9.443348	
8.64919	  9.446012	
8.68246	  9.432385	
8.71573	  9.411740	
8.74899	  9.404823	
8.78226	  9.418016	
8.81552	  9.436089	
8.84879	  9.442166	
8.88206	  9.432581	
8.91532	  9.419062	
8.94859	  9.419883	
8.98185	  9.436928	
9.01512	  9.451273	
9.04839	  9.451259	
9.08165	  9.446280	
9.11492	  9.447567	
9.14819	  9.451087	
9.18145	  9.445361	
9.21472	  9.429404	
9.24798	  9.413512	
9.28125	  9.405573	
9.31452	  9.407476	
9.34778	  9.418789	
9.38105	  9.434427	
9.41431	  9.446323	
9.44758	  9.450010	
9.48085	  9.445269	
9.51411	  9.437174	
9.54738	  9.435062	
9.58065	  9.441851	
9.61391	  9.449563	
9.64718	  9.448232	
9.68044	  9.438112	
9.71371	  9.430844	
9.74698	  9.434343	
9.78024	  9.445416	
9.81351	  9.456907	
9.84677	  9.464752	
9.88004	  9.475321	
9.91331	  9.497918	
9.94657	  9.523059	
9.97984	  9.527717	
10.0131	  9.505591	
10.0464	  9.473991	
10.0796	  9.451531	
10.1129	  9.443630	
10.1462	  9.445700	
10.1794	  9.450399	
10.2127	  9.453059	
10.246	  9.450240	
10.2792	  9.441830	
10.3125	  9.437883	
10.3458	  9.448053	
10.379	  9.470075	
10.4123	  9.498336	
10.4456	  9.528823	
10.4788	  9.554455	
10.5121	  9.569469	
10.5454	  9.574271	
10.5786	  9.569832	
10.6119	  9.556647	
10.6452	  9.537140	
10.6784	  9.513409	
10.7117	  9.492616	
10.745	  9.485993	
10.7782	  9.489434	
10.8115	  9.481500	
10.8448	  9.450369	
10.878	  9.411315	
10.9113	  9.389653	
10.9446	  9.390944	
10.9778	  9.399300	
11.0111	  9.401042	
11.0444	  9.394837	
11.0776	  9.385010	
11.1109	  9.376621	
11.1442	  9.371528	
11.1774	  9.367239	
11.2107	  9.362546	
11.244	  9.359244	
11.2772	  9.358128	
11.3105	  9.358598	
11.3437	  9.358625	
11.377	  9.356216	
